<?xml version="1.0" encoding="utf-8"?>
<!-- Generator: Adobe Illustrator 25.2.1, SVG Export Plug-In . SVG Version: 6.00 Build 0)  -->
<svg version="1.1" id="Layer_1" xmlns="http://www.w3.org/2000/svg" xmlns:xlink="http://www.w3.org/1999/xlink" x="0px" y="0px"
	 viewBox="0 0 576 576" style="enable-background:new 0 0 576 576;" xml:space="preserve">
<style type="text/css">
	.st0{fill:#F2FFC6;}
	.st1{fill:#8EC8AF;}
</style>
<rect class="st0" width="576" height="576"/>
<g>
	<g>
		<g>
			<path class="st1" d="M253.47,193.39c-30.4-30.39-89.9-33.91-132.02-33.91c-4.36,0-7.9,3.54-7.9,7.9
				c0,42.11,3.51,101.61,33.91,132.02c12.83,12.83,32.51,18.57,52.01,18.57c21.19,0,42.19-6.78,54-18.58
				C276.12,276.73,280.28,220.17,253.47,193.39z M242.3,288.22c-16.91,16.89-63.86,19.78-83.64,0
				c-24.54-24.54-28.79-74.4-29.25-112.9c38.5,0.46,88.35,4.71,112.9,29.25C262.09,224.36,259.2,271.33,242.3,288.22z"/>
		</g>
	</g>
	<g>
		<g>
			<path class="st1" d="M453.68,190.73c-42.11,0-101.61,3.51-132.02,33.91c-26.8,26.79-22.65,83.34,0,105.99
				c11.8,11.79,32.79,18.57,53.98,18.57c19.5,0,39.16-5.72,52.02-18.55c30.39-30.4,33.91-89.9,33.91-132.02
				C461.58,194.27,458.04,190.73,453.68,190.73z M416.47,319.46c-19.78,19.78-66.75,16.89-83.64,0c-16.89-16.89-19.78-63.86,0-83.64
				c24.54-24.54,74.4-28.79,112.9-29.25C445.26,245.08,441.01,294.94,416.47,319.46z"/>
		</g>
	</g>
	<g>
		<g>
			<path class="st1" d="M396.62,259.13c-1.86-3.97-7.21-5.33-11.14-3.49c-60.6,28.49-90.38,78.18-103.9,129.25
				c-16.74-108.6-65.14-141.7-85.67-155.75c-2.56-1.75-4.55-3.03-5.66-4.12c-3.08-3.08-8.09-3.08-11.17,0
				c-3.08,3.08-3.08,8.09,0,11.17c1.56,1.55,4.27,3.49,7.92,5.99c23.14,15.82,84.59,57.87,84.59,225.46c0,4.36,3.54,7.9,7.9,7.9
				c4.36,0,7.9-3.54,7.9-7.89c0-67.72,18.19-156.99,104.82-197.69c0-0.02,1.28-0.62,1.28-0.62
				C397.42,267.47,398.48,263.08,396.62,259.13z"/>
		</g>
	</g>
</g>
<g>
</g>
<g>
</g>
<g>
</g>
<g>
</g>
<g>
</g>
<g>
</g>
<g>
</g>
<g>
</g>
<g>
</g>
<g>
</g>
<g>
</g>
<g>
</g>
<g>
</g>
<g>
</g>
<g>
</g>
</svg>
