<?xml version="1.0" encoding="utf-8"?>
<!-- Generator: Adobe Illustrator 25.2.1, SVG Export Plug-In . SVG Version: 6.00 Build 0)  -->
<svg version="1.1" id="Layer_1" xmlns="http://www.w3.org/2000/svg" xmlns:xlink="http://www.w3.org/1999/xlink" x="0px" y="0px"
	 viewBox="0 0 206.57 206.57" style="enable-background:new 0 0 206.57 206.57;" xml:space="preserve">
<style type="text/css">
	.st0{fill:#F2FFC6;}
	.st1{fill:#8EC8AF;}
</style>
<rect class="st0" width="206.57" height="206.57"/>
<g>
	<g>
		<g>
			<path class="st1" d="M90.9,69.35C80,58.45,58.66,57.19,43.56,57.19c-1.56,0-2.83,1.27-2.83,2.83c0,15.1,1.26,36.44,12.16,47.34
				c4.6,4.6,11.66,6.66,18.65,6.66c7.6,0,15.13-2.43,19.37-6.66C99.02,99.24,100.51,78.96,90.9,69.35z M86.9,103.36
				c-6.06,6.06-22.9,7.1-30,0c-8.8-8.8-10.33-26.68-10.49-40.49c13.81,0.16,31.69,1.69,40.49,10.49
				C93.99,80.46,92.95,97.3,86.9,103.36z"/>
		</g>
	</g>
	<g>
		<g>
			<path class="st1" d="M162.7,68.4c-15.1,0-36.44,1.26-47.34,12.16c-9.61,9.61-8.12,29.89,0,38.01c4.23,4.23,11.76,6.66,19.36,6.66
				c6.99,0,14.04-2.05,18.66-6.65c10.9-10.9,12.16-32.24,12.16-47.34C165.53,69.67,164.26,68.4,162.7,68.4z M149.35,114.57
				c-7.1,7.1-23.94,6.06-30,0c-6.06-6.06-7.1-22.9,0-30c8.8-8.8,26.68-10.33,40.49-10.49C159.68,87.89,158.16,105.77,149.35,114.57z
				"/>
		</g>
	</g>
	<g>
		<g>
			<path class="st1" d="M142.24,92.93c-0.67-1.42-2.58-1.91-4-1.25c-21.73,10.22-32.41,28.04-37.26,46.35
				c-6-38.95-23.36-50.82-30.72-55.86c-0.92-0.63-1.63-1.09-2.03-1.48c-1.11-1.11-2.9-1.11-4.01,0c-1.11,1.11-1.11,2.9,0,4.01
				c0.56,0.56,1.53,1.25,2.84,2.15c8.3,5.67,30.34,20.75,30.34,80.86c0,1.56,1.27,2.83,2.83,2.83c1.56,0,2.83-1.27,2.83-2.83
				c0-24.28,6.52-56.3,37.59-70.9c0-0.01,0.46-0.22,0.46-0.22C142.53,95.92,142.9,94.35,142.24,92.93z"/>
		</g>
	</g>
</g>
<g>
</g>
<g>
</g>
<g>
</g>
<g>
</g>
<g>
</g>
<g>
</g>
<g>
</g>
<g>
</g>
<g>
</g>
<g>
</g>
<g>
</g>
<g>
</g>
<g>
</g>
<g>
</g>
<g>
</g>
</svg>
