<?xml version="1.0" encoding="utf-8"?>
<!-- Generator: Adobe Illustrator 25.2.1, SVG Export Plug-In . SVG Version: 6.00 Build 0)  -->
<svg version="1.1" id="Layer_1" xmlns="http://www.w3.org/2000/svg" xmlns:xlink="http://www.w3.org/1999/xlink" x="0px" y="0px"
	 viewBox="0 0 576 188.6" style="enable-background:new 0 0 576 188.6;" xml:space="preserve">
<style type="text/css">
	.st0{fill:none;}
	.st1{enable-background:new    ;}
	.st2{fill:#FFFFFF;}
</style>
<rect x="173" y="-390.5" class="st0" width="2.9" height="182.5"/>
<g class="st1">
	<path class="st2" d="M6.1,1.6h-7.4v-2.1h30.4v2.1h-6.9l14.9,61l-8,33.2L6.1,1.6z M43,38.8l-4.3,18.1l-1-4.4L50,0.3l15.3,62.4
		l-8.2,33L43,38.8z M65.8,52.5L78.5,1.6h-7.1v-2.1h16.3v2.1h-7.1L66.8,56.5L65.8,52.5z"/>
	<path class="st2" d="M76.3,93H83l20.5-79.1l1,4.4L92.9,63.2h22.9l0.6,2.1H92.3L85.1,93h6.3v2.1H76.3V93z M118.8,93h6.9L102.2-0.5
		h14.4L140,93h7.4v2.1h-28.6V93z"/>
	<path class="st2" d="M141.7-0.5H161v2.1c-10.6,0-17.2,6.5-17.2,21.1h-2.1V-0.5z M157.9,93h7.1V-0.5h15V93h7.1v2.1h-29.3V93z
		 M184,1.6v-2.1h19.3v23.2h-2.1C201.2,8.1,194.6,1.6,184,1.6z"/>
	<path class="st2" d="M210.8,93h7.1V1.6h-7.1v-2.1h21.4v95.6h-21.4V93z M240.4,1.6h-4.5v-2.1h28.6v24.1h-2.1
		C262.4,9.5,255.1,1.6,240.4,1.6z M242.4,48.1h-6.6V46h6.6c7.9,0,12.7-2.8,12.7-10.1h2.1v22.4h-2.1
		C255.1,51.2,250.3,48.1,242.4,48.1z M235.8,93h4.5c14.1,0,22.1-9.3,22.1-22.1h2.1v24.2h-28.7V93z"/>
	<path class="st2" d="M278.6,93h7.1V1.6h-7.1v-2.1h21.4V93h7.1v2.1h-28.5V93z M318.2,81V56.2c0-6.6-3.9-9.7-10.4-9.7h-4.3v-2.1h4.3
		c5.2,0,8.4-3.2,8.4-9.1V10.5c0-5.8-2.1-8.9-7.5-8.9h-5.2v-2.1h5.2c13.9,0,22.3,7.8,22.3,23.2c0,13.7-7.3,20.6-17.9,22.7
		c11.7,2.2,19,7.3,19,22V93h7.1v2.1h-7.1C322.3,95.1,318.2,89.7,318.2,81z"/>
</g>
<g class="st1">
	<path class="st2" d="M12.8,106.6V95.1H5.7V93h19.7l15.8,60.6L54,103.8v8.9l-19.7,75.9L12.8,106.6z M5.7,186.5h7.1V114l2.1,8.3v64.2
		H22v2.1H5.7V186.5z M48.7,186.5h7.1V96.4l0.9-3.4h20.5v2.1h-7.1v91.4h7.1v2.1H48.7V186.5z"/>
	<path class="st2" d="M102.7,186.5h7.1v-41.4l-20.7-50h-7.5V93h31.3v2.1h-6.7l19.3,46.6v44.8h7.1v2.1h-29.9V186.5z M126,135.4
		l17.1-40.3H136V93h16.4v2.1h-7.1l-18.1,42.7L126,135.4z"/>
	<path class="st2" d="M193.1,186.5h7.1V95.1h-7.1V93h21.4v93.5h9.7v2.1h-31.1V186.5z M218.1,141.2h3.8c4.1,0,7.4-1.9,7.4-8.4v-29.3
		c0-6.5-3.2-8.4-7.4-8.4h-3.8V93h3.8c13,0,23.4,9.1,23.4,25.1c0,16.1-10.5,25.1-23.4,25.1h-3.8V141.2z"/>
	<path class="st2" d="M252,186.5h7.1V95.1H252V93h28.5v2.1h-7.1v93.5H252V186.5z M277,186.5h6c14,0,22-9.3,22-22.1h2.1v24.2h-30
		V186.5z"/>
	<path class="st2" d="M310.4,186.5h6.7l20.5-79.1l1,4.4L327,156.8h22.9l0.6,2.1h-24.1l-7.3,27.7h6.3v2.1h-15.2V186.5z M352.9,186.5
		h6.9L336.3,93h14.4l23.4,93.5h7.4v2.1h-28.6V186.5z"/>
	<path class="st2" d="M390.4,107V95.1h-7.1V93h17.9l35.9,62.7v32.9L390.4,107z M383.3,186.5h7.1v-75.9l2.1,3.4v72.5h7.1v2.1h-16.3
		V186.5z M435,148.3V95.1h-7.1V93h16.3v2.1h-7.1v57L435,148.3z"/>
	<path class="st2" d="M450.1,93h19.3v2.1c-10.6,0-17.2,6.5-17.2,21.1h-2.1V93z M466.3,186.5h7.1V93h15v93.5h7.1v2.1h-29.3V186.5z
		 M492.5,95.1V93h19.3v23.2h-2.1C509.7,101.6,503.1,95.1,492.5,95.1z"/>
	<path class="st2" d="M524.1,182.8c-3.5,0-3.9,2.7-3.9,5.8h-1.9v-26.4h2.1c0.4,11.5,7.8,23.2,20.7,25v2.1
		C532.9,188.7,528.9,182.8,524.1,182.8z M544.7,187.2c9.1-0.4,17-4.8,17-13.7c0-5.2-2.5-8.8-10-16.2l-21.1-20.5
		c-7.1-7-11.1-13.7-11.1-22.3c0-10.9,8.4-21.6,21.6-22.1v2.1c-6.2,1-10.5,5.4-10.5,11.4c0,6.3,3.6,9.1,10,15.4l17.1,17.1
		c9.7,9.8,13.7,17.2,13.7,26c0,14.5-11,24.2-26.7,24.9V187.2z M544.7,94.5v-2.1c9.1,0.3,13.1,6,16.4,6c3,0,3-3,3-5.3h2.1V116H564
		C563.6,105.2,557.4,95.6,544.7,94.5z"/>
</g>
</svg>
